<svg width="0" height="0" class="hidden">
  <symbol version="1.0" xmlns="http://www.w3.org/2000/svg" viewBox="0 0 27 19" id="arrow">
    <path d="M16.6 7c-3.2 3.3-6 6-6.4 6-.3 0-2-1.4-3.7-3-2.6-2.5-3.4-2.8-4.3-1.7-.9 1-.2 2.3 3.3 5.7l4.5 4.4 8-7.9c4.3-4.3 7.7-8.2 7.4-8.7C24.3 0 22 1.3 16.6 7z"></path>
  </symbol>

  <symbol xmlns="http://www.w3.org/2000/svg" viewBox="0 0 862.5 97.3" id="logo-footer">
    <path d="M71.1 68.9c0 17.4-9.2 26.1-27.7 26.1H15.2C6.6 95 2.3 91.2 2.3 83.6V18.2c0-7.6 4.3-11.4 12.9-11.4h26.3c17.6 0 26.4 7 26.4 21 0 9.2-3.5 15.6-10.6 19.2 9.2 4.6 13.8 11.8 13.8 21.9zM43.4 33.1c0-5.7-2.8-8.5-8.5-8.5h-6.8v17h7.1c5.5 0 8.2-2.8 8.2-8.5zm1.9 34.4c0-6.4-3.2-9.5-9.5-9.5h-7.6v19.1H36c6.2 0 9.3-3.2 9.3-9.6zm94.6-9.9l12.9 17c1.9 2.5 2.9 5.2 2.9 8.1s-1.7 5.7-5.2 8.3c-3.5 2.7-6.7 4-9.6 4-2.9 0-5.7-1.8-8.3-5.3l-21-28.1v22.1c0 7.6-4.3 11.4-12.9 11.4-8.6 0-12.9-3.8-12.9-11.4V18.2c0-7.6 4.3-11.4 12.9-11.4H128c7.2 0 13.2 2.8 18 8.3 4.8 5.6 7.2 11.5 7.2 17.9-.1 11.4-4.5 19.6-13.3 24.6zm-28.4-32.9v20.1h7.4c7.3 0 11-3.4 11-10.1 0-6.7-3.7-10.1-11-10.1h-7.4zm84.6 59c0 7.6-4.3 11.4-12.9 11.4-8.6 0-12.9-3.8-12.9-11.4V18.2c0-7.6 4.3-11.4 12.9-11.4 8.6 0 12.9 3.8 12.9 11.4v65.5zm97.3-30.8v23.9c0 5.4-2.9 9.9-8.6 13.6-5.8 3.7-15.2 5.5-28.3 5.5-13.1 0-24-4.2-32.8-12.6-8.8-8.4-13.1-19.5-13.1-33.1S215 25.5 223.7 17c8.7-8.5 19.2-12.7 31.4-12.7S276.6 6.2 283 10c6.4 3.8 9.6 7.4 9.7 10.8.1 3.4-1 6.3-3.3 9-2.3 2.6-4.5 4-6.7 4s-5.4-1.1-9.5-3.2c-4.2-2.1-9.7-3.2-16.8-3.3-7-.1-12.2 2.1-15.6 6.4-3.4 4.4-5.1 9.9-5.1 16.5s2 12 5.9 16.3c4 4.3 9.4 6.4 16.2 6.3 6.8-.1 10.3-2.7 10.3-8 0-.6-.1-1.2-.3-1.8h-4.1c-7.8 0-11.8-3.7-11.8-11s3.9-11 11.8-11h19.6c6.8 0 10.1 3.9 10.1 11.9zm71.9-46c8.6 0 12.9 3.8 12.9 11.4v65.5c0 7.6-4.3 11.4-12.9 11.4s-12.9-3.8-12.9-11.4V61.2h-17.6v22.5c0 7.6-4.3 11.4-12.9 11.4S309 91.3 309 83.7V18.2c0-7.6 4.3-11.4 12.9-11.4s12.9 3.8 12.9 11.4v22.1h17.6V18.2c0-7.5 4.3-11.3 12.9-11.3zm76.9 20.8v56.2c0 7.6-4.3 11.4-12.9 11.4s-12.9-3.8-12.9-11.4V27.7h-13.1c-7 0-10.5-3.5-10.5-10.4s3.5-10.4 10.5-10.4h52.1c7 0 10.5 3.5 10.5 10.4s-3.5 10.4-10.5 10.4h-13.2zm172 22.4c0 13.6-4.4 24.7-13.3 33.1-8.8 8.4-20 12.6-33.6 12.6-13.5 0-24.7-4.2-33.5-12.6-8.8-8.4-13.1-19.5-13.1-33.1s4.4-24.7 13.1-33.2c8.7-8.5 19.9-12.7 33.7-12.7s25 4.2 33.6 12.7c8.7 8.5 13.1 19.6 13.1 33.2zm-31-16.4c-3.9-4.3-9.1-6.5-15.7-6.5-6.5 0-11.8 2.2-15.7 6.5-4 4.3-5.9 9.8-5.9 16.4s2 12 5.9 16.3c4 4.3 9.2 6.4 15.7 6.4s11.7-2.2 15.7-6.5c3.9-4.3 5.9-9.8 5.9-16.3s-2-12-5.9-16.3zM682 46.2v-28c0-7.6 4.3-11.4 12.9-11.4s12.9 3.8 12.9 11.4v65.5c0 7.6-4.3 11.4-12.9 11.4-4.8 0-8.6-1.7-11.4-5l-29-34.5v28.1c0 7.6-4.3 11.4-12.9 11.4s-12.9-3.8-12.9-11.4V18.2c0-7.5 4.3-11.3 12.9-11.4 5.5 0 9.5 1.7 11.9 5.4l28.5 34zm54.3 48.9c-8.6 0-12.9-3.8-12.9-11.4V18.2c0-7.6 4.3-11.4 12.9-11.4h31.4c6.7 0 10.1 3.5 10.1 10.4s-3.4 10.4-10.1 10.4h-18.4v12.7H765c6.7 0 10.1 3.5 10.1 10.5s-3.4 10.5-10.1 10.5h-15.8v13.1h18.4c6.7 0 10.1 3.5 10.1 10.4s-3.4 10.4-10.1 10.4h-31.3zm66.5-48.6V15h-11.2V8.6h30.1V15h-11.2v31.4h-7.7zm23.6 0V8.6h11.4l6.9 25.8 6.8-25.8H863v37.8h-7.1V16.7l-7.5 29.8H841l-7.5-29.8v29.8h-7.1z"></path>
  </symbol>
</svg>